HIERARCHY
ROOT Hips
{
  OFFSET -187.679 86.5976 -156.378
  CHANNELS 6 Xposition Yposition Zposition Zrotation Xrotation Yrotation
  JOINT LeftUpLeg
  {
    OFFSET 8.64259 1.95398 -2.38835
    CHANNELS 3 Zrotation Xrotation Yrotation
    JOINT LeftLeg
    {
      OFFSET 43.7702 0 0
      CHANNELS 3 Zrotation Xrotation Yrotation
      JOINT LeftFoot
      {
        OFFSET 40.6238 0 0
        CHANNELS 3 Zrotation Xrotation Yrotation
        JOINT LeftToeBase
        {
          OFFSET 12.7242 0 0
          CHANNELS 3 Zrotation Xrotation Yrotation
          End Site
          {
            OFFSET 0 0 0
          }
        }
      }
    }
  }
  JOINT RightUpLeg
  {
    OFFSET -8.2249 1.95398 -2.59336
    CHANNELS 3 Zrotation Xrotation Yrotation
    JOINT RightLeg
    {
      OFFSET 43.5653 0 0
      CHANNELS 3 Zrotation Xrotation Yrotation
      JOINT RightFoot
      {
        OFFSET 40.6238 0 0
        CHANNELS 3 Zrotation Xrotation Yrotation
        JOINT RightToeBase
        {
          OFFSET 12.7242 0 0
          CHANNELS 3 Zrotation Xrotation Yrotation
          End Site
          {
            OFFSET 0 0 0
          }
        }
      }
    }
  }
  JOINT Spine
  {
    OFFSET 0.165834 0.87714 6.61349
    CHANNELS 3 Zrotation Xrotation Yrotation
    JOINT Spine1
    {
      OFFSET 7.38963 1.71661e-005 0
      CHANNELS 3 Zrotation Xrotation Yrotation
      JOINT Spine2
      {
        OFFSET 11.9445 1.14441e-005 0
        CHANNELS 3 Zrotation Xrotation Yrotation
        JOINT Spine3
        {
          OFFSET 14.7254 4.19617e-005 0
          CHANNELS 3 Zrotation Xrotation Yrotation
          JOINT Spine4
          {
            OFFSET 10.9679 0 0
            CHANNELS 3 Zrotation Xrotation Yrotation
            JOINT RightShoulder
            {
              OFFSET 2.46616 -1.6653 3.69651
              CHANNELS 3 Zrotation Xrotation Yrotation
              JOINT RightArm
              {
                OFFSET 13.0012 0 0
                CHANNELS 3 Zrotation Xrotation Yrotation
                JOINT RightForeArm
                {
                  OFFSET 28.7848 1.52588e-005 0
                  CHANNELS 3 Zrotation Xrotation Yrotation
                  JOINT RightHand
                  {
                    OFFSET 26.5688 1.52588e-005 0
                    CHANNELS 3 Zrotation Xrotation Yrotation
                    End Site
                    {
                      OFFSET 0 0 0
                    }
                  }
                }
              }
            }
            JOINT LeftShoulder
            {
              OFFSET 2.38034 -1.29275 -3.7523
              CHANNELS 3 Zrotation Xrotation Yrotation
              JOINT LeftArm
              {
                OFFSET 16.3182 6.10352e-005 0
                CHANNELS 3 Zrotation Xrotation Yrotation
                JOINT LeftForeArm
                {
                  OFFSET 27.0901 0 0
                  CHANNELS 3 Zrotation Xrotation Yrotation
                  JOINT LeftHand
                  {
                    OFFSET 24.5451 1.52588e-005 0
                    CHANNELS 3 Zrotation Xrotation Yrotation
                    End Site
                    {
                      OFFSET 0 0 0
                    }
                  }
                }
              }
            }
            JOINT Neck
            {
              OFFSET 5.0226 -0.0266342 0
              CHANNELS 3 Zrotation Xrotation Yrotation
              JOINT Head
              {
                OFFSET 6.69363 2.86102e-005 0
                CHANNELS 3 Zrotation Xrotation Yrotation
                End Site
                {
                  OFFSET 0 0 0
                }
              }
            }
          }
        }
      }
    }
  }
}
MOTION
Frames:	17
Frame Time:	0.0416667
-29.5628 85.6242 67.5179 -86.4277 -42.8148 -95.6836 -176.411 46.6068 97.429 -118.04 21.8387 8.40693 69.4337 6.66749 10.8038 24.3593 0.949904 -7.41709 174.19 5.60276 98.5688 -55.7397 0.265194 2.32665 100.626 -14.8858 -0.668049 18.0372 -3.88571 5.56372 1.56349 8.01784 -90.0057 10.8459 3.11048 -0.302757 -0.82142 3.09414 -0.439504 -23.3858 3.05753 0.64698 -3.37313 3.05753 0.646965 85.1295 -44.5403 -109.846 17.1668 5.86678 -55.6686 -32.3187 19.6282 -119.773 -9.20879 -0.896698 6.65557 -87.924 -44.701 81.0426 -25.7734 11.4385 23.3198 64.5674 -39.7825 -103.228 3.63276 0.209029 1.45035 35.2457 -0.821872 5.5174 -0.201138 -3.2277 -0.376156 
-34.1886 86.6894 74.2676 -85.2674 -41.5189 -96.9457 -176.499 51.9703 95.2785 -110.375 17.6503 7.39579 72.2376 7.60127 9.08261 26.7766 1.80314 -7.71503 173.359 -1.66031 94.0611 -49.0625 -0.718426 1.18134 97.041 -13.6255 -0.132957 23.2235 -3.49242 7.65267 2.08876 7.9386 -89.553 10.9936 4.3654 0.472794 -0.669993 4.38195 0.279834 -23.2564 4.02117 1.76497 -3.24376 4.02116 1.76496 86.9379 -41.8683 -107.829 21.3496 9.27579 -59.618 -32.8044 20.5645 -123.329 -11.0974 -1.25822 8.46496 -87.0336 -43.7265 82.2769 -25.8954 11.5614 31.1531 63.6001 -40.9713 -104.16 3.50544 0.073484 -1.06719 35.8015 -3.85654 3.81012 -1.13643 -5.33388 0.717237 
-39.8945 88.6774 81.3023 -85.1226 -40.816 -99.1433 -175.756 53.0628 92.5604 -98.5091 13.2019 5.98077 75.7754 8.74839 5.26972 21.1481 0.592223 -9.14996 172.312 -9.19616 89.2727 -40.3318 -5.34474 -0.652702 86.2239 -10.5575 -3.46809 28.2154 -2.72125 8.97098 2.63863 7.92075 -89.021 11.0047 5.70633 1.40347 -0.654185 5.76253 1.15018 -23.2655 5.02027 3.05715 -3.25287 5.02027 3.05715 89.1819 -39.0476 -104.944 25.8251 11.9194 -59.6407 -32.8094 21.754 -127.417 -12.5029 -1.68114 10.9114 -86.4606 -40.4757 82.5973 -26.0768 10.3074 37.5881 61.5207 -40.8674 -105.776 3.73468 0.0831026 -0.608614 35.5598 -7.60885 1.34031 -1.31476 -7.75264 1.93387 
-46.0584 90.7408 88.518 -85.7175 -40.9939 -101.776 -175.682 51.2377 89.8819 -85.2239 12.0287 4.49558 77.6449 8.45986 1.74756 20.1737 -0.914037 -6.04094 171.334 -16.7512 85.836 -31.1393 -6.54377 -2.46678 72.0852 -5.38758 -4.5361 30.7348 -2.65967 10.7899 3.03101 7.97038 -88.5526 10.8733 6.7035 2.25012 -0.781703 6.796 1.95171 -23.4091 5.71702 4.16533 -3.3964 5.71704 4.16533 90.7519 -36.784 -102.86 28.9067 14.3747 -56.7814 -28.7717 19.9707 -131.762 -14.0853 -1.80602 10.0544 -86.3029 -37.9043 82.3588 -26.9092 9.5985 43.2744 59.5677 -43.3824 -109.699 10.8122 -0.872342 -10.5229 36.2626 -10.8482 -0.0588553 -3.20292 -10.2211 1.61975 
-52.1759 92.2483 95.7513 -85.4241 -42.1714 -103.641 -175.985 49.2227 87.1456 -70.784 16.1965 3.16846 74.7174 7.54422 2.56201 24.728 -0.134958 -4.00556 170.431 -21.4341 83.3166 -26.2539 -6.02543 -3.75886 62.3075 -1.61487 -2.42365 21.7432 -3.21222 6.02633 3.26264 7.97269 -88.0714 10.8315 7.38661 3.14749 -0.821385 7.51791 2.81793 -23.4501 6.09951 5.2262 -3.43744 6.09951 5.2262 92.0171 -34.5816 -101.184 30.9541 16.065 -52.8367 -25.88 18.4851 -134.725 -14.1569 -1.66391 8.82931 -85.9898 -34.1177 82.1239 -27.4255 8.70178 46.4278 53.5331 -42.4064 -113.08 16.0715 -0.812279 -8.99523 37.8348 -13.9488 -1.66414 -6.25918 -12.4498 1.70169 
-57.9788 93.0193 102.783 -84.8295 -43.3979 -104.417 -176.608 46.764 85.4939 -56.2953 21.303 2.00373 72.808 6.70781 1.87676 29.0869 0.209891 -0.292346 170.411 -24.1257 82.7921 -27.2885 -4.44983 -4.67121 61.8376 -1.30312 -1.88793 14.5845 -2.97307 1.65406 3.39101 7.9398 -87.7239 10.8643 7.80278 3.79718 -0.787652 7.96218 3.44857 -23.4117 6.30194 5.97009 -3.39905 6.30194 5.97009 92.8049 -33.1649 -100.092 30.1085 15.6995 -49.5658 -26.5008 19.6417 -135.351 -13.5957 -1.58577 8.73901 -86.2548 -32.0082 81.1615 -26.7749 8.16113 48.485 58.7933 -43.5374 -109.086 6.54482 0.209573 -0.388676 37.7951 -16.1058 -3.0094 -7.02272 -13.9131 2.13339 
-63.4046 93.337 109.494 -84.255 -45.271 -103.575 -177.384 44.9116 84.8087 -44.1524 26.3646 1.36955 69.5317 4.97789 1.19306 31.9807 0.987232 0.802482 170.857 -25.8725 84.265 -31.1608 -3.09646 -3.82461 65.3647 -2.75613 -2.46028 17.6141 -2.98756 3.07134 3.33991 7.88326 -87.6988 10.9769 7.71392 3.84561 -0.675768 7.87556 3.50096 -23.2947 6.20274 5.98917 -3.28204 6.20274 5.98915 93.4453 -32.6668 -98.9966 27.4413 12.3767 -47.1176 -30.7509 23.2617 -132.988 -12.8181 -1.68962 10.5423 -87.2807 -34.5951 79.8941 -22.0371 8.12855 49.1168 55.6643 -44.1508 -112.353 6.36708 0.170799 -0.804713 37.1548 -16.9814 -3.13061 -5.95914 -14.7064 2.5332 
-68.6136 93.1456 115.98 -83.7819 -47.1968 -101.375 -177.041 43.7369 84.6105 -36.9298 30.114 0.331926 70.8314 5.96165 2.79791 30.0681 0.131446 1.15873 173.245 -25.4132 88.6291 -38.6773 -0.28017 -2.69956 65.1054 -2.80296 -2.25015 18.218 -2.94352 3.25832 3.23533 7.7324 -87.8987 11.3 7.41653 3.44788 -0.353397 7.56101 3.11677 -22.974 6.03815 5.52089 -2.96134 6.03816 5.52088 92.7265 -33.891 -100.039 24.1137 9.21834 -42.2618 -31.9162 23.0706 -129.612 -12.3459 -1.49571 9.35586 -88.6339 -37.9565 78.3359 -18.6016 8.59872 47.3341 52.665 -43.2287 -114.474 7.02661 0.300606 0.414089 34.9167 -17.3482 -3.65719 -3.6598 -14.8901 3.95151 
-73.8462 92.7244 122.279 -85.6809 -48.807 -100.978 -176.852 41.4694 84.4014 -35.7021 27.0784 0.141077 75.3142 7.69779 1.11733 23.7668 -2.2892 0.890803 173.798 -24.0636 91.5106 -49.6183 0.883208 -1.22678 64.5077 -2.65129 -1.53984 19.0001 -3.28359 4.54897 3.05717 7.72433 -88.1362 11.3377 6.95192 3.01745 -0.317418 7.07787 2.70739 -22.9338 5.72398 4.97067 -2.92117 5.72397 4.97066 90.936 -36.6064 -102.581 21.1794 6.51566 -35.7745 -33.5905 21.7486 -124.623 -13.9424 -1.96128 11.4976 -89.3196 -40.5998 77.843 -17.2855 9.56681 42.7142 51.7322 -42.075 -114.61 8.54683 0.406619 0.989148 32.7537 -17.3809 -4.95901 -2.86835 -14.4709 5.07176 
-79.283 91.8517 128.742 -89.5706 -50.3114 -102.708 -176.815 36.6562 83.7532 -35.9578 23.1776 0.665435 76.2429 7.9452 0.563618 25.6932 -1.81088 1.72818 172.319 -22.4818 92.3653 -62.3882 1.33315 0.0602903 64.7401 -2.65704 -0.804628 17.8828 -3.67485 4.93332 2.74252 7.87634 -88.3472 11.0506 6.2254 2.69066 -0.60759 6.33775 2.41321 -23.2081 5.12918 4.43971 -3.19544 5.12918 4.43971 89.0446 -39.5821 -105.012 19.5327 2.62512 -29.5251 -31.7839 17.4944 -117.447 -14.5042 -1.82776 9.80534 -90.5527 -43.0715 76.457 -17.7183 10.2399 37.0875 54.7473 -41.6755 -111.868 7.25842 0.257336 -0.104812 30.0571 -16.5815 -6.3686 -1.83774 -13.2754 5.01425 
-84.5868 91.2056 135.096 -93.4668 -51.6664 -105.37 -177.7 33.2609 82.9801 -39.6996 24.2063 3.16636 69.9331 4.6286 0.0604705 22.531 -2.31346 -0.41211 168.74 -19.6168 90.8987 -74.8786 3.82215 0.938508 65.2965 -3.16828 -2.19319 15.1868 -4.62053 5.78472 2.30621 8.01308 -88.4428 10.7866 5.31056 2.60453 -0.875664 5.41999 2.36782 -23.4513 4.28264 4.0812 -3.43864 4.28264 4.0812 87.0023 -43.3507 -107.224 19.5136 -1.87695 -23.6678 -26.6331 12.9121 -108.116 -12.8196 -1.12863 5.40816 -92.0764 -45.494 74.6907 -18.8984 12.7706 29.5766 55.7783 -40.4089 -109.074 3.83824 0.143554 0.0574863 26.466 -15.5047 -8.67072 0.0722632 -11.573 5.35469 
-89.5798 90.0969 141.26 -96.5703 -51.9485 -108.967 -177.59 30.2259 81.6227 -44.7211 25.3282 3.98507 65.0438 2.69236 1.55819 22.4701 -1.74063 -2.49502 164.393 -14.6631 87.3469 -87.7481 9.80778 0.318905 67.1003 -4.13446 -2.57855 15.5404 -4.04028 4.60796 1.8174 8.24879 -88.3548 10.3159 4.37307 2.89074 -1.3505 4.49601 2.6953 -23.8975 3.30277 4.07111 -3.88482 3.30276 4.07109 85.4455 -46.2974 -108.737 20.9762 -4.35648 -18.535 -26.3368 11.1088 -100.333 -12.2257 -0.941418 4.1007 -93.6159 -47.8201 72.9788 -16.2515 14.3247 17.7996 55.4379 -38.9489 -108.555 3.75872 0.199367 1.15771 24.4838 -14.1251 -10.1514 2.2058 -9.80369 5.2611 
-94.022 88.6658 146.914 -98.417 -52.4062 -112.315 -175.781 29.2098 80.2078 -54.168 25.6351 2.55961 73.308 7.15116 2.27579 20.9081 -2.61005 -1.42658 161.225 -6.02297 84.2691 -100.402 17.2532 -1.3288 68.9322 -4.72093 -2.6108 15.5257 -3.8016 4.02729 1.26685 8.50231 -88.1613 9.80807 3.3582 3.37903 -1.86257 3.50359 3.22801 -24.3796 2.18847 4.23104 -4.36696 2.18846 4.23102 83.1055 -49.6546 -111.165 21.6022 -2.09893 -11.3659 -25.4867 10.1375 -99.2749 -14.2152 -1.24338 5.21607 -95.2091 -50.182 71.2968 -11.7382 17.9365 1.91977 61.4379 -39.4402 -103.559 -0.825713 -0.0154883 1.0019 25.1553 -13.0248 -10.9032 3.19862 -8.37549 4.9797 
-98.3224 88.2276 152.039 -100.052 -51.356 -116.353 -174.248 23.9886 78.6548 -57.0283 25.6391 1.41502 81.1466 10.7572 0.775586 15.2585 -5.11549 -0.632324 162.083 4.0085 82.2408 -110.82 18.9691 -3.41394 69.8125 -5.46919 -3.88707 13.4666 -3.66138 2.74222 0.755166 8.85305 -87.8248 9.10443 2.47853 4.13326 -2.57038 2.65789 4.02038 -25.0582 1.12329 4.68585 -5.04553 1.12329 4.68586 82.0618 -50.4625 -112.431 24.2173 0.840595 -3.36571 -27.112 10.2725 -100.748 -10.6221 -1.0612 6.87442 -95.5584 -50.0517 70.7452 -4.92157 17.6872 -16.5316 64.4802 -39.4338 -101.256 0.0479066 0.0734089 3.38283 27.8981 -11.8377 -11.5918 3.09129 -6.69185 4.73264 
-103.003 87.9385 157.078 -100.603 -50.3505 -115.97 -173.685 18.746 80.3363 -58.2997 25.4257 1.98117 81.8591 11.9048 2.59595 26.4903 0.902629 -5.30271 165.384 13.6911 84.6977 -117.741 14.3638 -4.28832 69.599 -5.27102 -7.64929 12.4415 -4.4339 3.99264 0.332531 9.0298 -87.9353 8.76982 1.58054 3.98198 -2.90601 1.75412 3.9087 -25.3931 0.31193 4.27237 -5.38046 0.311925 4.27235 85.3122 -48.5606 -108.194 29.8266 -0.772031 3.46126 -18.3337 9.56186 -101.449 -15.4878 -1.39887 5.55465 -95.8344 -47.5941 69.5681 -1.04749 11.7348 -30.6785 56.8768 -37.3319 -106.35 3.28849 0.239302 2.38357 29.7785 -9.7004 -9.99157 2.79513 -5.13994 3.23176 
-107.921 87.5504 162.251 -98.5865 -49.0465 -111.899 -172.074 14.7099 84.1215 -59.1836 25.8167 2.11429 83.1816 12.9184 3.22439 34.7563 4.38978 -8.47143 169.421 23.5213 88.2212 -120.466 11.7487 -4.61495 71.0704 -5.40823 -7.20782 12.2945 -4.89236 4.93279 -0.128541 8.81736 -88.2049 9.21637 0.547849 3.51755 -2.45919 0.702036 3.49007 -24.9562 -0.533934 3.51968 -4.94357 -0.533923 3.51968 86.2075 -48.252 -106.917 32.0572 -4.67314 11.697 -18.2113 11.1476 -102.779 -13.1697 -1.02525 4.13076 -95.4157 -46.2257 69.7586 1.17946 4.105 -38.2687 54.6118 -36.2269 -108.824 2.91541 0.342965 5.09534 28.7694 -6.34434 -8.10195 2.80008 -2.84723 1.39401 
-113.335 87.8565 167.73 -95.4324 -48.3449 -106.4 -171.303 10.4496 87.8991 -57.8562 27.1911 3.16893 85.0586 14.1874 3.75817 35.4492 4.27991 -7.24897 171.935 32.7828 91.9507 -118.003 12.1544 -4.47695 72.5161 -5.58599 -5.49374 13.8613 -4.76087 5.41355 -0.694071 8.47057 -88.5778 9.93424 -0.737269 2.8832 -1.73974 -0.60973 2.91281 -24.2559 -1.56947 2.5287 -4.24322 -1.56944 2.52871 86.1404 -48.4702 -106.951 32.158 -8.44045 19.8993 -23.1492 13.653 -103.985 -9.71191 -0.595281 2.20151 -93.403 -44.2544 72.2574 0.777239 -4.25319 -43.3085 50.523 -35.3166 -113.531 4.25793 0.427184 4.65739 27.5627 -2.45105 -5.87321 2.58008 -0.139271 -0.187228 
